<?xml version="1.0" standalone="no"?>
<!DOCTYPE svg PUBLIC "-//W3C//DTD SVG 20010904//EN"
 "http://www.w3.org/TR/2001/REC-SVG-20010904/DTD/svg10.dtd">
<svg version="1.0" xmlns="http://www.w3.org/2000/svg"
 width="603.000000pt" height="173.000000pt" viewBox="0 0 603.000000 173.000000"
 preserveAspectRatio="xMidYMid meet">
<metadata>
Created by potrace 1.15, written by Peter Selinger 2001-2017
</metadata>
<g transform="translate(0.000000,173.000000) scale(0.100000,-0.100000)"
fill="#000000" stroke="none">
<path d="M181 1669 c-51 -10 -104 -48 -129 -92 -15 -29 -17 -72 -17 -477 l0
-445 25 -43 c15 -27 42 -54 70 -70 42 -25 53 -27 207 -30 l163 -4 2 -232 3
-231 105 0 105 0 3 233 2 232 350 0 350 0 0 -219 c0 -121 3 -226 6 -235 9 -24
209 -24 218 0 3 9 6 114 6 234 l0 218 148 4 c138 4 151 6 193 30 27 16 54 43
69 70 l25 43 0 445 c0 405 -2 448 -17 477 -26 47 -77 82 -138 93 -65 12 -1685
12 -1749 -1z m1789 -65 c61 -37 60 -30 60 -509 0 -479 1 -472 -60 -509 -25
-14 -112 -16 -910 -16 -798 0 -885 2 -910 16 -61 37 -60 30 -60 509 0 477 -1
471 59 508 23 15 110 16 909 17 801 0 887 -2 912 -16z m-1300 -1299 l0 -205
-60 0 -60 0 0 205 0 205 60 0 60 0 0 -205z m930 0 l0 -205 -60 0 -60 0 0 205
0 205 60 0 60 0 0 -205z"/>
</g>
</svg>
