<svg xmlns="http://www.w3.org/2000/svg" xmlns:xlink="http://www.w3.org/1999/xlink" version="1.1" x="0px" y="0px" viewBox="0 0 32 40" style="enable-background:new 0 0 32 32;" xml:space="preserve"><style type="text/css">
	.st0{display:none;}
	.st1{display:inline;}
</style><g><path d="M30,5h-4h-4.3V3.9c0-1.6-1.3-2.9-2.9-2.9h-5.6c-1.6,0-2.9,1.3-2.9,2.9V5H6H2C1.4,5,1,5.4,1,6s0.4,1,1,1h3.2L9,30.2   c0.1,0.5,0.5,0.8,1,0.8h12c0.5,0,0.9-0.4,1-0.8L26.8,7H30c0.6,0,1-0.4,1-1S30.6,5,30,5z M12.3,3.9c0-0.5,0.4-0.9,0.9-0.9h5.6   c0.5,0,0.9,0.4,0.9,0.9V5h-7.3V3.9z M21.2,29H10.8L7.2,7h4.2h9.3h4.2L21.2,29z"/><path d="M13,11.2c-0.6,0-1,0.4-1,1v10.3c0,0.6,0.4,1,1,1s1-0.4,1-1V12.2C14,11.6,13.6,11.2,13,11.2z"/><path d="M19,11.2c-0.6,0-1,0.4-1,1v10.3c0,0.6,0.4,1,1,1s1-0.4,1-1V12.2C20,11.6,19.6,11.2,19,11.2z"/></g><text x="0" y="47" fill="#000000" font-size="5px" font-weight="bold" font-family="'Helvetica Neue', Helvetica, Arial-Unicode, Arial, Sans-serif">Created by Bayu Apriansyah Kandhihawa</text><text x="0" y="52" fill="#000000" font-size="5px" font-weight="bold" font-family="'Helvetica Neue', Helvetica, Arial-Unicode, Arial, Sans-serif">from the Noun Project</text></svg>